<mxfile host="app.diagrams.net" modified="2021-04-10T03:53:35.106Z" agent="5.0 (Macintosh; Intel Mac OS X 10_15_4) AppleWebKit/537.36 (KHTML, like Gecko) Chrome/80.0.3987.149 Safari/537.36" etag="8lYgFJhl9xz3jUNB7GQE" version="14.5.10" type="github">
  <diagram id="kgpKYQtTHZ0yAKxKKP6v" name="Page-1">
    <mxGraphModel dx="1776" dy="527" grid="1" gridSize="10" guides="1" tooltips="1" connect="1" arrows="1" fold="1" page="1" pageScale="1" pageWidth="850" pageHeight="1100" math="0" shadow="0">
      <root>
        <mxCell id="0" />
        <mxCell id="1" parent="0" />
        <mxCell id="3nuBFxr9cyL0pnOWT2aG-1" value=":TopupService" style="shape=umlLifeline;perimeter=lifelinePerimeter;container=1;collapsible=0;recursiveResize=0;rounded=0;shadow=0;strokeWidth=1;" parent="1" vertex="1">
          <mxGeometry x="120" y="80" width="100" height="300" as="geometry" />
        </mxCell>
        <mxCell id="3nuBFxr9cyL0pnOWT2aG-2" value="" style="points=[];perimeter=orthogonalPerimeter;rounded=0;shadow=0;strokeWidth=1;" parent="3nuBFxr9cyL0pnOWT2aG-1" vertex="1">
          <mxGeometry x="45" y="70" width="10" height="40" as="geometry" />
        </mxCell>
        <mxCell id="3nuBFxr9cyL0pnOWT2aG-5" value=":PaymentService" style="shape=umlLifeline;perimeter=lifelinePerimeter;container=1;collapsible=0;recursiveResize=0;rounded=0;shadow=0;strokeWidth=1;" parent="1" vertex="1">
          <mxGeometry x="300" y="80" width="100" height="300" as="geometry" />
        </mxCell>
        <mxCell id="3nuBFxr9cyL0pnOWT2aG-6" value="" style="points=[];perimeter=orthogonalPerimeter;rounded=0;shadow=0;strokeWidth=1;" parent="3nuBFxr9cyL0pnOWT2aG-5" vertex="1">
          <mxGeometry x="45" y="80" width="10" height="30" as="geometry" />
        </mxCell>
        <mxCell id="3nuBFxr9cyL0pnOWT2aG-7" value="isValid" style="verticalAlign=bottom;endArrow=open;dashed=1;endSize=8;exitX=0;exitY=0.95;shadow=0;strokeWidth=1;" parent="1" edge="1">
          <mxGeometry relative="1" as="geometry">
            <mxPoint x="175" y="188.99999999999977" as="targetPoint" />
            <mxPoint x="345" y="188.99999999999977" as="sourcePoint" />
          </mxGeometry>
        </mxCell>
        <mxCell id="3nuBFxr9cyL0pnOWT2aG-8" value="verify(transaction)" style="verticalAlign=bottom;endArrow=block;entryX=0;entryY=0;shadow=0;strokeWidth=1;" parent="1" source="3nuBFxr9cyL0pnOWT2aG-2" target="3nuBFxr9cyL0pnOWT2aG-6" edge="1">
          <mxGeometry relative="1" as="geometry">
            <mxPoint x="275" y="160" as="sourcePoint" />
          </mxGeometry>
        </mxCell>
        <mxCell id="Vm8Z-0npeJ-CPNUGcAEW-1" value=":VoucherService" style="shape=umlLifeline;perimeter=lifelinePerimeter;container=1;collapsible=0;recursiveResize=0;rounded=0;shadow=0;strokeWidth=1;" vertex="1" parent="1">
          <mxGeometry x="480" y="80" width="100" height="300" as="geometry" />
        </mxCell>
        <mxCell id="Vm8Z-0npeJ-CPNUGcAEW-4" value="isValid" style="shape=umlFrame;whiteSpace=wrap;html=1;" vertex="1" parent="1">
          <mxGeometry x="90" y="208" width="500" height="200" as="geometry" />
        </mxCell>
        <mxCell id="Vm8Z-0npeJ-CPNUGcAEW-6" value="true" style="text;html=1;strokeColor=none;fillColor=none;align=center;verticalAlign=middle;whiteSpace=wrap;rounded=0;" vertex="1" parent="1">
          <mxGeometry x="100" y="240" width="40" height="20" as="geometry" />
        </mxCell>
        <mxCell id="Vm8Z-0npeJ-CPNUGcAEW-7" value="" style="points=[];perimeter=orthogonalPerimeter;rounded=0;shadow=0;strokeWidth=1;" vertex="1" parent="1">
          <mxGeometry x="165" y="240" width="10" height="60" as="geometry" />
        </mxCell>
        <mxCell id="Vm8Z-0npeJ-CPNUGcAEW-8" value="getVoucher(phoneNumber)" style="verticalAlign=bottom;endArrow=block;shadow=0;strokeWidth=1;" edge="1" parent="1">
          <mxGeometry relative="1" as="geometry">
            <mxPoint x="175" y="239.5000000000001" as="sourcePoint" />
            <mxPoint x="523" y="240" as="targetPoint" />
          </mxGeometry>
        </mxCell>
        <mxCell id="Vm8Z-0npeJ-CPNUGcAEW-9" value="" style="points=[];perimeter=orthogonalPerimeter;rounded=0;shadow=0;strokeWidth=1;" vertex="1" parent="1">
          <mxGeometry x="525" y="240" width="10" height="40" as="geometry" />
        </mxCell>
        <mxCell id="Vm8Z-0npeJ-CPNUGcAEW-10" value="voucherCode" style="verticalAlign=bottom;endArrow=open;dashed=1;endSize=8;exitX=-0.1;exitY=0.975;shadow=0;strokeWidth=1;entryX=1.2;entryY=0.683;entryDx=0;entryDy=0;entryPerimeter=0;exitDx=0;exitDy=0;exitPerimeter=0;" edge="1" parent="1" source="Vm8Z-0npeJ-CPNUGcAEW-9" target="Vm8Z-0npeJ-CPNUGcAEW-7">
          <mxGeometry relative="1" as="geometry">
            <mxPoint x="355" y="269.9999999999998" as="targetPoint" />
            <mxPoint x="525" y="269.9999999999998" as="sourcePoint" />
          </mxGeometry>
        </mxCell>
        <mxCell id="Vm8Z-0npeJ-CPNUGcAEW-11" value="" style="endArrow=none;dashed=1;html=1;dashPattern=1 3;strokeWidth=2;exitX=0;exitY=0.51;exitDx=0;exitDy=0;exitPerimeter=0;entryX=0.998;entryY=0.51;entryDx=0;entryDy=0;entryPerimeter=0;" edge="1" parent="1" source="Vm8Z-0npeJ-CPNUGcAEW-4" target="Vm8Z-0npeJ-CPNUGcAEW-4">
          <mxGeometry width="50" height="50" relative="1" as="geometry">
            <mxPoint x="400" y="300" as="sourcePoint" />
            <mxPoint x="450" y="250" as="targetPoint" />
          </mxGeometry>
        </mxCell>
        <mxCell id="Vm8Z-0npeJ-CPNUGcAEW-12" value="false" style="text;html=1;strokeColor=none;fillColor=none;align=center;verticalAlign=middle;whiteSpace=wrap;rounded=0;" vertex="1" parent="1">
          <mxGeometry x="100" y="310" width="40" height="20" as="geometry" />
        </mxCell>
        <mxCell id="Vm8Z-0npeJ-CPNUGcAEW-13" value="User" style="shape=umlLifeline;perimeter=lifelinePerimeter;container=1;collapsible=0;recursiveResize=0;rounded=0;shadow=0;strokeWidth=1;" vertex="1" parent="1">
          <mxGeometry x="-60" y="80" width="100" height="330" as="geometry" />
        </mxCell>
        <mxCell id="Vm8Z-0npeJ-CPNUGcAEW-14" value="" style="points=[];perimeter=orthogonalPerimeter;rounded=0;shadow=0;strokeWidth=1;" vertex="1" parent="Vm8Z-0npeJ-CPNUGcAEW-13">
          <mxGeometry x="45" y="70" width="10" height="260" as="geometry" />
        </mxCell>
        <mxCell id="3nuBFxr9cyL0pnOWT2aG-3" value="purchase" style="verticalAlign=bottom;startArrow=oval;endArrow=block;startSize=8;shadow=0;strokeWidth=1;exitX=0.8;exitY=0;exitDx=0;exitDy=0;exitPerimeter=0;" parent="1" target="3nuBFxr9cyL0pnOWT2aG-2" edge="1" source="Vm8Z-0npeJ-CPNUGcAEW-14">
          <mxGeometry relative="1" as="geometry">
            <mxPoint x="105" y="150" as="sourcePoint" />
          </mxGeometry>
        </mxCell>
        <mxCell id="Vm8Z-0npeJ-CPNUGcAEW-16" value="voucherCode" style="verticalAlign=bottom;endArrow=open;dashed=1;endSize=8;shadow=0;strokeWidth=1;exitX=-0.1;exitY=0.967;exitDx=0;exitDy=0;exitPerimeter=0;entryX=0.9;entryY=0.562;entryDx=0;entryDy=0;entryPerimeter=0;" edge="1" parent="1" source="Vm8Z-0npeJ-CPNUGcAEW-7" target="Vm8Z-0npeJ-CPNUGcAEW-14">
          <mxGeometry relative="1" as="geometry">
            <mxPoint y="298" as="targetPoint" />
            <mxPoint x="291" y="340" as="sourcePoint" />
          </mxGeometry>
        </mxCell>
        <mxCell id="Vm8Z-0npeJ-CPNUGcAEW-17" value="error" style="verticalAlign=bottom;endArrow=open;dashed=1;endSize=8;shadow=0;strokeWidth=1;entryX=1.3;entryY=0.854;entryDx=0;entryDy=0;entryPerimeter=0;exitX=-0.1;exitY=0.967;exitDx=0;exitDy=0;exitPerimeter=0;" edge="1" parent="1" target="Vm8Z-0npeJ-CPNUGcAEW-14">
          <mxGeometry relative="1" as="geometry">
            <mxPoint x="-12" y="370.98" as="targetPoint" />
            <mxPoint x="165" y="370" as="sourcePoint" />
          </mxGeometry>
        </mxCell>
        <mxCell id="Vm8Z-0npeJ-CPNUGcAEW-18" value="" style="points=[];perimeter=orthogonalPerimeter;rounded=0;shadow=0;strokeWidth=1;" vertex="1" parent="1">
          <mxGeometry x="165" y="330" width="10" height="60" as="geometry" />
        </mxCell>
      </root>
    </mxGraphModel>
  </diagram>
</mxfile>
